<?xml version="1.0" encoding="UTF-8"?>
<svg version="1.1" xmlns="http://www.w3.org/2000/svg" width="626" height="417">
<path d="M0 0 C206.58 0 413.16 0 626 0 C626 137.61 626 275.22 626 417 C419.42 417 212.84 417 0 417 C0 279.39 0 141.78 0 0 Z " fill="#F6F6F6" transform="translate(0,0)"/>
<path d="M0 0 C3.02373778 2.6434446 4.72440477 5.76545824 6.6875 9.2421875 C7.20316528 10.15026657 7.20316528 10.15026657 7.72924805 11.07669067 C8.82410773 13.00689349 9.91222254 14.94079872 11 16.875 C12.08924578 18.80119946 13.17985288 20.72662248 14.27075195 22.65188599 C15.26214254 24.40322845 16.2502991 26.15640045 17.23828125 27.90966797 C18.92321865 30.9688855 18.92321865 30.9688855 20.79296875 33.59423828 C22 36 22 36 21.87670898 38.45019531 C20.84781262 41.44261905 19.52247389 44.03599036 17.97265625 46.796875 C17.35068359 47.9113501 16.72871094 49.0258252 16.08789062 50.17407227 C15.4130525 51.36621357 14.73791568 52.55818582 14.0625 53.75 C13.3700618 54.98277766 12.67800718 56.21577085 11.98632812 57.44897461 C7.62868326 65.2003958 3.18063 72.895436 -1.36328125 80.5390625 C-4.68875802 86.14245845 -7.93494253 91.79157467 -11.1875 97.4375 C-11.82558594 98.54488525 -12.46367187 99.65227051 -13.12109375 100.79321289 C-14.42906691 103.06369079 -15.73684513 105.334281 -17.04443359 107.60498047 C-20.19332054 113.0716998 -23.34683264 118.53574887 -26.5 124 C-27.7500235 126.16665311 -29.00002347 128.33331979 -30.25 130.5 C-32.75 134.83333333 -35.25 139.16666667 -37.75 143.5 C-38.3697168 144.57427246 -38.98943359 145.64854492 -39.62792969 146.75537109 C-40.86782537 148.90432957 -42.10805529 151.05309523 -43.34863281 153.20166016 C-46.27872574 158.27724766 -49.20536409 163.35473735 -52.12011719 168.43914795 C-53.49696526 170.8404023 -54.87572692 173.24055526 -56.25463867 175.640625 C-57.22696703 177.33486603 -58.1965254 179.03069581 -59.16601562 180.7265625 C-59.75576172 181.75265625 -60.34550781 182.77875 -60.953125 183.8359375 C-61.47036133 184.73876465 -61.98759766 185.6415918 -62.52050781 186.57177734 C-63.8967307 188.83050883 -65.37335316 190.91665478 -67 193 C-69.00906758 189.65994936 -71.0170628 186.31925644 -73.02416992 182.97802734 C-74.03315757 181.29883276 -75.0429342 179.62011234 -76.05273438 177.94140625 C-77.37761347 175.73544992 -78.69741968 173.52643915 -80.01220703 171.31445312 C-81.34907434 169.08535577 -82.70998295 166.87051931 -84.09326172 164.66992188 C-84.74182129 163.61869141 -85.39038086 162.56746094 -86.05859375 161.484375 C-86.64825928 160.54819336 -87.2379248 159.61201172 -87.84545898 158.64746094 C-89.2362673 155.45821895 -89.12950567 154.25482694 -88 151 C-86.73168945 148.42651367 -86.73168945 148.42651367 -85.11328125 145.66796875 C-84.51193359 144.63478516 -83.91058594 143.60160156 -83.29101562 142.53710938 C-82.31165039 140.87905273 -82.31165039 140.87905273 -81.3125 139.1875 C-80.63019245 138.02057199 -79.94856206 136.8532478 -79.26757812 135.68554688 C-77.86665869 133.28595951 -76.46177647 130.88876622 -75.05322266 128.49365234 C-72.59217781 124.30868233 -70.14719727 120.11439538 -67.70239258 115.91992188 C-66.55875442 113.9583684 -65.41404413 111.99743966 -64.26831055 110.03710938 C-60.0230868 102.77146269 -55.81976608 95.48236461 -51.625 88.1875 C-45.82901054 78.11380522 -39.92953706 68.10532154 -33.98754883 58.1171875 C-28.73794977 49.27952164 -23.58792163 40.38753939 -18.46655273 31.47509766 C-12.40087669 20.93011571 -6.21647219 10.45663684 0 0 Z " fill="#010101" transform="translate(313,112)"/>
<path d="M0 0 C0.66 0 1.32 0 2 0 C2.48073975 0.85658203 2.48073975 0.85658203 2.97119141 1.73046875 C9.18433183 12.78972684 15.45092421 23.81175831 21.875 34.75 C26.75635101 43.08629278 31.5755436 51.45558085 36.2991333 59.88220215 C36.968783 61.07517323 37.64074082 62.26685195 38.31512451 63.45715332 C39.25468078 65.11732415 40.18418683 66.78317052 41.11328125 68.44921875 C41.64735596 69.40143311 42.18143066 70.35364746 42.73168945 71.3347168 C44.00883625 74.01856889 44.79899051 76.03436884 45 79 C44.04711914 81.2890625 44.04711914 81.2890625 42.53515625 83.625 C41.98577393 84.4910083 41.4363916 85.3570166 40.87036133 86.24926758 C40.27376709 87.15700928 39.67717285 88.06475098 39.0625 89 C37.85901975 90.87867872 36.65589443 92.75758487 35.453125 94.63671875 C34.86208984 95.5498584 34.27105469 96.46299805 33.66210938 97.40380859 C32.20992055 99.67210707 30.80112269 101.95644123 29.421875 104.26953125 C29.05827881 104.87861328 28.69468262 105.48769531 28.32006836 106.11523438 C27.37480685 107.70754308 26.43147565 109.30099724 25.48828125 110.89453125 C24.99714844 111.58933594 24.50601563 112.28414063 24 113 C23.34 113 22.68 113 22 113 C21.61779297 112.31075439 21.23558594 111.62150879 20.84179688 110.91137695 C11.41306978 93.82129061 11.41306978 93.82129061 1.2578125 77.16015625 C0 75 0 75 0 73 C-23.1 73 -46.2 73 -70 73 C-63.25192308 59.50384615 -63.25192308 59.50384615 -60.38671875 54.6484375 C-59.77892578 53.61332031 -59.17113281 52.57820313 -58.54492188 51.51171875 C-57.93197266 50.47660156 -57.31902344 49.44148438 -56.6875 48.375 C-55.44097445 46.2580667 -54.19485875 44.14089199 -52.94921875 42.0234375 C-52.40612061 41.10481934 -51.86302246 40.18620117 -51.3034668 39.23974609 C-50.49447424 37.84965475 -49.7192806 36.4385612 -49 35 C-39.1 35 -29.2 35 -19 35 C-18.34 33.35 -17.68 31.7 -17 30 C-16.3132954 28.65204833 -15.60097852 27.31682827 -14.86328125 25.99609375 C-14.24936523 24.89273682 -14.24936523 24.89273682 -13.62304688 23.76708984 C-12.97432617 22.61394287 -12.97432617 22.61394287 -12.3125 21.4375 C-11.86841797 20.64553223 -11.42433594 19.85356445 -10.96679688 19.03759766 C-10.07029484 17.44219918 -9.17204222 15.84778305 -8.27197266 14.25439453 C-7.12640974 12.22404367 -5.99017974 10.18876885 -4.85546875 8.15234375 C-4.24316406 7.07082031 -3.63085938 5.98929688 -3 4.875 C-2.46375 3.92367187 -1.9275 2.97234375 -1.375 1.9921875 C-0.92125 1.33476562 -0.4675 0.67734375 0 0 Z " fill="#010101" transform="translate(357,190)"/>
<path d="M0 0 C8.79690485 -0.11585937 17.59354704 -0.204697 26.39104843 -0.25906086 C30.47614238 -0.28515327 34.56071432 -0.32054342 38.64550781 -0.37719727 C42.58776222 -0.43153189 46.52951462 -0.46142322 50.47211456 -0.47438622 C51.97607579 -0.4836237 53.48000957 -0.50166295 54.98375702 -0.52865028 C57.09101168 -0.56496389 59.19619364 -0.56994498 61.30371094 -0.56762695 C62.50284119 -0.57873001 63.70197144 -0.58983307 64.93743896 -0.60127258 C68 0 68 0 70.35601807 2.34797668 C72 5 72 5 73 8 C72.34 8.33 71.68 8.66 71 9 C68 4.25 68 4.25 68 2 C34.34 1.505 34.34 1.505 0 1 C0 0.67 0 0.34 0 0 Z " fill="#202020" transform="translate(289,261)"/>
<path d="M0 0 C0 3 0 3 -1.57910156 5.65698242 C-4 8 -4 8 -7.11621094 8.56762695 C-8.31020508 8.54144287 -9.50419922 8.51525879 -10.734375 8.48828125 C-12.67763672 8.46411133 -12.67763672 8.46411133 -14.66015625 8.43945312 C-16.02345428 8.39767939 -17.38673552 8.3553547 -18.75 8.3125 C-20.12886624 8.2874091 -21.50777597 8.26459729 -22.88671875 8.24414062 C-26.25891356 8.18518617 -29.62890741 8.10293171 -33 8 C-33.33 7.34 -33.66 6.68 -34 6 C-24.1 6 -14.2 6 -4 6 C-3.34 4.35 -2.68 2.7 -2 1 C-1.34 0.67 -0.68 0.34 0 0 Z " fill="#131313" transform="translate(342,219)"/>
<path d="M0 0 C2.96865509 2.54456151 4.3619751 5.48994665 6 9 C5.01 9 4.02 9 3 9 C1.9739266 7.68662604 0.97272675 6.35335895 0 5 C-0.66 5 -1.32 5 -2 5 C-1.34 3.35 -0.68 1.7 0 0 Z M-3 5 C-2.34 5.66 -1.68 6.32 -1 7 C-3.97 12.28 -6.94 17.56 -10 23 C-10.99 23 -11.98 23 -13 23 C-9.72591106 16.96476272 -6.43506486 10.94530457 -3 5 Z " fill="#171717" transform="translate(313,112)"/>
<path d="M0 0 C3.97096033 1.48722278 5.22611671 3.57153241 7.234375 7.2265625 C8.09482422 8.7734375 8.09482422 8.7734375 8.97265625 10.3515625 C9.55917969 11.43179688 10.14570313 12.51203125 10.75 13.625 C11.35199219 14.71296875 11.95398438 15.8009375 12.57421875 16.921875 C14.0593904 19.60932846 15.53411775 22.30199115 17 25 C16.34 25.66 15.68 26.32 15 27 C11.35376312 22.13198742 8.44859262 17.28508994 5.8125 11.8125 C5.47025391 11.11447266 5.12800781 10.41644531 4.77539062 9.69726562 C4.12591425 8.37182938 3.47877095 7.04524619 2.83447266 5.71728516 C1.90470045 3.80388032 0.95726047 1.89979386 0 0 Z " fill="#151515" transform="translate(374,221)"/>
<path d="M0 0 C0.99 0.33 1.98 0.66 3 1 C1.70966095 3.27159689 0.41778598 5.54229625 -0.875 7.8125 C-1.23980469 8.45509766 -1.60460937 9.09769531 -1.98046875 9.75976562 C-3.58083901 12.56768798 -5.20642866 15.30964298 -7 18 C-7.66 18 -8.32 18 -9 18 C-10.32 15.36 -11.64 12.72 -13 10 C-12.34 9.67 -11.68 9.34 -11 9 C-10.34 10.65 -9.68 12.3 -9 14 C-6.37497441 12.68748721 -5.8790642 11.25642751 -4.5 8.6875 C-4.0771875 7.90761719 -3.654375 7.12773437 -3.21875 6.32421875 C-2.11965505 4.22818832 -1.04867714 2.12162922 0 0 Z " fill="#161616" transform="translate(388,285)"/>
<path d="M0 0 C0.68359375 1.640625 0.68359375 1.640625 1 4 C-0.21484375 6.796875 -0.21484375 6.796875 -1.9375 9.75 C-2.50339844 10.73484375 -3.06929687 11.7196875 -3.65234375 12.734375 C-4.09707031 13.48203125 -4.54179687 14.2296875 -5 15 C-7.55309813 12.52578973 -9.42741609 10.22379701 -11 7 C-10.6875 4.6875 -10.6875 4.6875 -10 3 C-7 7.75 -7 7.75 -7 10 C-3.72713318 7.2180632 -2.03572303 3.72045933 0 0 Z " fill="#161616" transform="translate(252,290)"/>
<path d="M0 0 C3.28816124 3.87321695 5.79349086 7.89533265 8.25 12.3125 C8.79527344 13.28026367 8.79527344 13.28026367 9.3515625 14.26757812 C10.23836205 15.84281416 11.11974563 17.42109714 12 19 C11.34 19.66 10.68 20.32 10 21 C9.67 20.01 9.34 19.02 9 18 C8.34 17.67 7.68 17.34 7 17 C5.9410803 15.28501048 4.95047363 13.52738569 4 11.75 C3.484375 10.79609375 2.96875 9.8421875 2.4375 8.859375 C1.1393738 6.27723266 0.02492022 3.70027058 -1 1 C-0.67 0.67 -0.34 0.34 0 0 Z " fill="#181818" transform="translate(319,122)"/>
<path d="M0 0 C0.66 0.33 1.32 0.66 2 1 C0.39516194 5.66861981 -1.97490194 10.09258167 -5 14 C-5.66 14 -6.32 14 -7 14 C-5.23570801 9.02790438 -2.6060834 4.56561939 0 0 Z M-8 14 C-7.34 14.66 -6.68 15.32 -6 16 C-7.485 18.475 -7.485 18.475 -9 21 C-9.66 20.34 -10.32 19.68 -11 19 C-10.01 17.35 -9.02 15.7 -8 14 Z " fill="#171717" transform="translate(286,158)"/>
<path d="M0 0 C0.66 0 1.32 0 2 0 C0.40376856 4.39383706 -1.78024333 8.28995807 -4.125 12.3125 C-4.49753906 12.95767578 -4.87007813 13.60285156 -5.25390625 14.26757812 C-6.16632213 15.84675945 -7.08275509 17.42361864 -8 19 C-8.66 18.34 -9.32 17.68 -10 17 C-8.5228313 14.35303306 -7.04337118 11.70739435 -5.5625 9.0625 C-5.14162109 8.30775391 -4.72074219 7.55300781 -4.28710938 6.77539062 C-3.68286133 5.69741211 -3.68286133 5.69741211 -3.06640625 4.59765625 C-2.69459229 3.93258057 -2.32277832 3.26750488 -1.93969727 2.58227539 C-1 1 -1 1 0 0 Z " fill="#161616" transform="translate(317,178)"/>
<path d="M0 0 C0.66 0 1.32 0 2 0 C0.5143761 4.00375642 -1.36863385 7.61421847 -3.5 11.3125 C-4.1084375 12.38113281 -4.716875 13.44976562 -5.34375 14.55078125 C-6.16359375 15.76314453 -6.16359375 15.76314453 -7 17 C-7.66 17 -8.32 17 -9 17 C-7.46933687 11.18348012 -4.32262613 4.32262613 0 0 Z " fill="#151515" transform="translate(306,197)"/>
<path d="M0 0 C0.66 0 1.32 0 2 0 C0.85569823 3.87302138 -0.23320098 7.00263439 -3 10 C-3.66 10 -4.32 10 -5 10 C-3.66749209 6.4124787 -2.169283 3.1635377 0 0 Z M-6 10 C-5.34 10.66 -4.68 11.32 -4 12 C-4.99 12.99 -5.98 13.98 -7 15 C-7 12 -7 12 -6 10 Z " fill="#151515" transform="translate(238,241)"/>
<path d="M0 0 C0.66 0 1.32 0 2 0 C3.98 4.29 5.96 8.58 8 13 C7.01 13.495 7.01 13.495 6 14 C4.98915735 12.42356682 3.99169489 10.8385483 3 9.25 C2.443125 8.36828125 1.88625 7.4865625 1.3125 6.578125 C0 4 0 4 0 0 Z " fill="#151515" transform="translate(228,271)"/>
<path d="M0 0 C3.37227049 1.39367924 4.90493713 2.84275299 6.8125 5.9375 C7.25207031 6.62714844 7.69164062 7.31679688 8.14453125 8.02734375 C9 10 9 10 8 13 C5.81302498 10.20375042 4.00847187 7.36692128 2.3125 4.25 C1.65701172 3.05117188 1.65701172 3.05117188 0.98828125 1.828125 C0.49908203 0.92320312 0.49908203 0.92320312 0 0 Z " fill="#171717" transform="translate(361,271)"/>
<path d="M0 0 C0.66 0 1.32 0 2 0 C5 4.38461538 5 4.38461538 5 7 C4.236875 6.814375 3.47375 6.62875 2.6875 6.4375 C-0.08967375 5.77180827 -0.08967375 5.77180827 -3 7 C-1.125 2.25 -1.125 2.25 0 0 Z " fill="#151515" transform="translate(357,190)"/>
<path d="M0 0 C2.52349243 3.12432397 4.27256146 6.38060496 6 10 C5.01 10 4.02 10 3 10 C-0.22265625 4.82421875 -0.22265625 4.82421875 -1 3 C-0.67 2.01 -0.34 1.02 0 0 Z " fill="#171717" transform="translate(393,251)"/>
<path d="M0 0 C0.75 1.5625 0.75 1.5625 1 4 C-0.13084437 6.50286409 -1.52139516 8.67007722 -3 11 C-3.66 10.67 -4.32 10.34 -5 10 C-3.66511872 6.40608886 -2.03977277 3.24509304 0 0 Z " fill="#151515" transform="translate(274,252)"/>
<path d="M0 0 C0.66 0.33 1.32 0.66 2 1 C0.375 6.75 0.375 6.75 -3 9 C-3.33 8.34 -3.66 7.68 -4 7 C-3.22265625 5.2734375 -3.22265625 5.2734375 -2.0625 3.375 C-1.381875 2.26125 -0.70125 1.1475 0 0 Z " fill="#131313" transform="translate(353,197)"/>
<path d="M0 0 C1 4 1 4 0.22265625 5.921875 C-0.8515625 7.61458333 -1.92578125 9.30729167 -3 11 C-3.66 10.34 -4.32 9.68 -5 9 C-3.35 6.03 -1.7 3.06 0 0 Z " fill="#161616" transform="translate(259,278)"/>
<path d="M0 0 C1 4 1 4 0.22265625 5.921875 C-0.8515625 7.61458333 -1.92578125 9.30729167 -3 11 C-3.66 10.34 -4.32 9.68 -5 9 C-3.35 6.03 -1.7 3.06 0 0 Z " fill="#1B1B1B" transform="translate(248,223)"/>
<path d="M0 0 C2.99324263 1.0975223 3.84610901 1.67682892 5.25 4.625 C5.4975 5.40875 5.745 6.1925 6 7 C5.01 7 4.02 7 3 7 C0 2.77777778 0 2.77777778 0 0 Z " fill="#1C1C1C" transform="translate(369,212)"/>
<path d="M0 0 C0.6875 1.6875 0.6875 1.6875 1 4 C-0.3125 6.75 -0.3125 6.75 -2 9 C-2.66 9 -3.32 9 -4 9 C-2.94124926 5.59687262 -1.99097846 2.98646769 0 0 Z " fill="#151515" transform="translate(331,153)"/>
<path d="M0 0 C0.66 0 1.32 0 2 0 C1.25 2.9375 1.25 2.9375 0 6 C-2.125 6.875 -2.125 6.875 -4 7 C-2.68 4.69 -1.36 2.38 0 0 Z " fill="#181818" transform="translate(291,150)"/>
<path d="M0 0 C1.8125 0.125 1.8125 0.125 4 1 C5.75 4.0625 5.75 4.0625 7 7 C6.01 7.495 6.01 7.495 5 8 C2 3.25 2 3.25 2 1 C1.34 0.67 0.68 0.34 0 0 Z " fill="#131313" transform="translate(355,262)"/>
<path d="M0 0 C0.66 0.66 1.32 1.32 2 2 C1.34 2 0.68 2 0 2 C0 1.34 0 0.68 0 0 Z M-1 2 C-0.34 2.66 0.32 3.32 1 4 C-0.485 6.475 -0.485 6.475 -2 9 C-2.66 8.34 -3.32 7.68 -4 7 C-3.01 5.35 -2.02 3.7 -1 2 Z " fill="#1B1B1B" transform="translate(304,232)"/>
<path d="M0 0 C0.66 0.66 1.32 1.32 2 2 C1.34 2 0.68 2 0 2 C0 1.34 0 0.68 0 0 Z M-1 2 C-0.34 2.66 0.32 3.32 1 4 C-0.485 6.475 -0.485 6.475 -2 9 C-2.66 8.34 -3.32 7.68 -4 7 C-3.01 5.35 -2.02 3.7 -1 2 Z " fill="#1D1D1D" transform="translate(346,209)"/>
<path d="M0 0 C0.33 0 0.66 0 1 0 C1.25 2.25 1.25 2.25 1 5 C-1 7.3125 -1 7.3125 -3 9 C-3 5.30581799 -1.71820705 3.22163822 0 0 Z " fill="#1C1C1C" transform="translate(273,180)"/>
</svg>
